<svg xmlns="http://www.w3.org/2000/svg" viewBox="0 0 32 32"><path d="M24.19 23.29a.31.31 0 0 0-.09-.07.88.88 0 0 0-.28-.17s0 0-.05 0l-6.17-1.87a1 1 0 0 0-.94.2 5.36 5.36 0 0 0-.7.73 10.63 10.63 0 0 1-3.69-2.39A10.46 10.46 0 0 1 9.89 16a5.13 5.13 0 0 0 .72-.68 1 1 0 0 0 .21-.95L9 8.23v-.06a1 1 0 0 0-.15-.26l-.08-.1a1 1 0 0 0-.37-.24 4.61 4.61 0 0 0-1.46-.23h-.59a3 3 0 0 0-.5.09 3.28 3.28 0 0 0-.61.18 2 2 0 0 0-.34.13h-.1a3.8 3.8 0 0 0-.55.33 4.13 4.13 0 0 0-.55.41 2.4 2.4 0 0 0-.32.33 4.69 4.69 0 0 0-1.28 2.44c0 .14-.05.29-.06.38a3.77 3.77 0 0 0 0 .58 16.43 16.43 0 0 0 .11 1.92 17.8 17.8 0 0 0 15.7 15.76 16.73 16.73 0 0 0 1.93.11 4.22 4.22 0 0 0 .53 0l.43-.07h.22l.27-.09.34-.12h.1a2.72 2.72 0 0 0 .35-.16.81.81 0 0 0 .18-.1l.11-.07.19-.12a4.87 4.87 0 0 0 .94-.83 5.21 5.21 0 0 0 .69-1v-.06a4.14 4.14 0 0 0 .19-.49 3.5 3.5 0 0 0 .14-.49 2.21 2.21 0 0 0 .07-.3c0-.11 0-.22.05-.36s0-.32 0-.47a4.46 4.46 0 0 0-.22-1.45.88.88 0 0 0-.17-.53Zm-1.55 2.12v.15a.43.43 0 0 0 0 .11 1.3 1.3 0 0 0 0 .13 1.29 1.29 0 0 1-.06.21 1 1 0 0 0 0 .1.52.52 0 0 1-.06.16l-.05.1a2.88 2.88 0 0 1-.42.65 2.94 2.94 0 0 1-.56.49l-.11.07-.1.06a1.48 1.48 0 0 1-.25.12l-.21.08H19.91a9.18 9.18 0 0 1-1.69-.09 15.83 15.83 0 0 1-14-14A14.87 14.87 0 0 1 4 12.21a2.6 2.6 0 0 1 0-.35 1.43 1.43 0 0 1 0-.23 2.89 2.89 0 0 1 .73-1.39l.1-.09L5 10a1.69 1.69 0 0 1 .29-.22 2.26 2.26 0 0 1 .26-.16l.11-.05.12-.06h.14a1.12 1.12 0 0 1 .26-.08h.07c.08 0 .16 0 .3-.05a2.65 2.65 0 0 1 .63 0l1.51 5a2.92 2.92 0 0 1-.54.38l-.07.06A.93.93 0 0 0 8 15a.81.81 0 0 0-.12.14 1.3 1.3 0 0 0-.08.17.64.64 0 0 0-.06.18 1 1 0 0 0 0 .39v.09a12.58 12.58 0 0 0 8.33 8.33H16.37a.93.93 0 0 0 .23 0h.07a1 1 0 0 0 .31-.16A.46.46 0 0 1 17 24a1.2 1.2 0 0 0 .17-.21 2.68 2.68 0 0 1 .36-.52l5 1.5v.35c0 .12.11.21.11.29ZM22.5 2A7.5 7.5 0 1 0 30 9.5 7.5 7.5 0 0 0 22.5 2Zm0 13A5.5 5.5 0 1 1 28 9.5a5.51 5.51 0 0 1-5.5 5.5Zm2.62-4.3a1 1 0 0 1 0 1.42 1 1 0 0 1-.71.29 1 1 0 0 1-.7-.29l-1.9-1.9a1 1 0 0 1-.23-.34 1 1 0 0 1-.08-.4V6.25a1 1 0 0 1 2 0v2.83Z" data-name="10 call history"/></svg>