<svg xmlns="http://www.w3.org/2000/svg" data-name="Layer 51" viewBox="0 0 32 32"><path d="M21.223 19.963a1 1 0 0 1-.665-.817.965.965 0 0 1 .4-.937C22.61 17.026 24 13.554 24 12V9.293A8.213 8.213 0 0 0 16.246 1 8 8 0 0 0 8 9v3c0 1.554 1.39 5.026 3.038 6.209a.964.964 0 0 1 .4.937 1 1 0 0 1-.665.817C6.58 21.49 1 24.191 1 30a1 1 0 0 0 1 1h28a1 1 0 0 0 1-1c0-5.809-5.58-8.51-9.777-10.037ZM3.075 29c.465-3 3.1-5.237 8.385-7.157a3.013 3.013 0 0 0 1.962-2.424 2.98 2.98 0 0 0-1.222-2.834C11.106 15.8 10 12.944 10 12V9a6 6 0 0 1 6.186-6A6.2 6.2 0 0 1 22 9.293V12c0 .944-1.106 3.8-2.2 4.584a2.981 2.981 0 0 0-1.219 2.834 3.013 3.013 0 0 0 1.962 2.424C25.82 23.763 28.46 26 28.925 29H3.075Z"/></svg>